<?xml version="1.0" encoding="utf-8" ?>
<svg xmlns="http://www.w3.org/2000/svg" xmlns:xlink="http://www.w3.org/1999/xlink" width="568" height="387">
	<path fill="#E67E79" d="M302.757 224.234C303.074 222.183 303.386 219.68 304.478 217.89C305.08 216.903 305.702 216.267 306.838 215.983C307.285 216.068 307.596 216.071 307.953 216.371C309.552 217.714 309.441 221.026 309.605 222.976C307.993 221.602 309.605 218.03 306.3 218.342C305.842 218.386 305.387 218.469 304.934 218.552C304.163 220.212 304.095 223.031 302.757 224.234Z"/>
	<path fill="#2B4759" d="M406.009 62.5851C407.184 63.3112 408.09 64.9364 408.415 66.2687C408.943 68.4379 408.358 70.3258 407.184 72.1591C406.81 72.7433 406.55 73.1403 405.927 73.4769C405.906 73.4127 405.882 73.3491 405.863 73.2843C405.731 72.8503 405.512 63.7906 405.597 63.3946C405.647 63.1625 405.895 62.8085 406.009 62.5851Z"/>
	<path fill="#2B4759" d="M391.568 74.8866C395.054 73.7528 400.338 74.3113 404.061 74.2893L404.54 74.5773L404.59 74.8568C404.574 74.9105 404.567 74.967 404.544 75.0178C404.282 75.5958 403.26 76.165 402.702 76.422C399.259 78.0062 394.85 76.0345 391.568 74.8866Z"/>
	<path fill="#0E324B" d="M123.947 211.29C124.486 211.627 124.681 211.838 125.004 212.387C125.186 213.983 124.822 215.046 123.924 216.343C121.657 219.619 116.654 224.348 112.664 224.993C110.337 225.37 108.369 224.741 106.502 223.343C103.459 221.063 101.435 217.82 98.7522 215.187C96.9278 213.397 94.8113 211.904 92.9559 210.133C85.2182 202.749 79.812 194.905 75.7215 185.044C74.2033 181.385 72.674 177.811 72.0807 173.859C70.4072 162.715 70.0645 149.687 72.613 138.66C73.3252 135.579 74.6054 132.627 75.779 129.696C79.9396 119.308 85.0498 109.472 91.7604 100.477C96.0971 94.6641 101.217 89.4333 106.474 84.4599C110.861 80.3099 115.222 76.177 120.046 72.5288C136.999 59.7093 160.394 48.837 181.522 45.8121C188.672 44.7886 196.252 45.1463 203.462 45.1558C209.204 45.1633 214.96 45.1143 220.672 45.7988C235.63 47.5913 249.954 54.3263 262.284 62.7469C264.672 64.3777 266.521 66.6277 268.855 68.2568C269.926 69.004 272.506 69.6422 273.787 69.0893C276.788 67.7939 281.359 63.459 284.255 61.384Q286.264 59.9482 288.349 58.6247Q290.433 57.3013 292.587 56.0942Q294.741 54.8871 296.958 53.8Q299.175 52.7129 301.449 51.7491Q303.722 50.7852 306.045 49.9476Q308.367 49.1099 310.732 48.401Q313.098 47.692 315.498 47.1139Q317.898 46.5358 320.327 46.0902C326.524 44.9314 332.986 45.1046 339.267 45.0865C354.037 45.0439 367.001 45.3719 381.285 49.8796C384.108 50.7703 386.851 51.9813 389.645 52.9753C394.026 54.5345 398.91 56.1214 402.745 58.7934C403.967 59.6446 405.737 61.0845 406.009 62.5851C405.895 62.8085 405.647 63.1625 405.597 63.3946C405.512 63.7906 405.731 72.8503 405.863 73.2843C405.882 73.3491 405.906 73.4127 405.927 73.4769C405.832 73.9753 405.933 74.1268 405.493 74.4239C405.199 74.6228 404.928 74.7442 404.59 74.8568L404.54 74.5773L404.061 74.2893C400.338 74.3113 395.054 73.7528 391.568 74.8866C385.62 72.2149 379.752 69.5246 373.449 67.7542C370.802 67.0108 368.059 66.5635 365.379 65.9395C352.974 63.0504 345.76 62.4913 332.966 63.1869C328.897 63.8263 325.142 64.6317 321.255 65.9991C318.66 66.5187 315.941 66.7732 313.411 67.5165C303.122 70.5402 293.864 77.4305 286.151 84.6969C283.414 87.2754 279.958 91.1962 276.541 92.8507C274.011 94.0761 268.78 94.1074 266.37 92.5304C262.955 90.2953 260.184 86.8285 257.287 83.9843C255.518 82.2483 253.534 80.7126 251.568 79.2104C234.439 66.126 209.016 59.9658 187.806 64.1585C173.076 67.0701 160.817 70.46 147.571 77.7167C144.328 79.4937 141.202 81.4717 138.062 83.4217C136.53 84.3725 134.796 85.6851 133.133 86.3323C130.394 88.371 127.673 90.4228 125.167 92.7485L123.616 94.109L121.044 96.5601L119.67 97.8525Q118.53 98.9811 117.405 100.125L115.929 101.606C113.655 104.01 111.26 106.579 109.425 109.333C106.012 115.031 101.948 120.278 98.6575 126.072C92.6553 136.639 89.7411 148.089 90.1755 160.228C90.2787 163.109 90.4225 166.052 91.1101 168.862C94.4836 182.65 104.252 193.607 114.492 202.918C116.921 205.127 119.48 207.713 122.233 209.49C122.74 210.157 123.187 210.898 123.947 211.29Z"/>
	<path fill="#2B4759" d="M117.405 100.125C116.836 99.595 116.572 99.2713 116.414 98.5107L116.834 97.9887C117.891 97.5689 118.593 97.6698 119.67 97.8525Q118.53 98.9811 117.405 100.125Z"/>
	<path fill="#2B4759" d="M121.044 96.5601C120.725 96.1917 120.584 95.8457 120.396 95.4019C120.525 94.8179 120.573 94.5731 120.994 94.1417C121.429 93.6967 122.123 93.5038 122.733 93.5402C123.274 93.5725 123.265 93.7359 123.616 94.109L121.044 96.5601Z"/>
	<path fill="#2B4759" d="M125.167 92.7485C125.04 92.6347 124.91 92.5237 124.79 92.4024C124.26 91.8683 124.098 91.5715 124.088 90.8313C125 89.7669 126.624 90.0088 127.729 89.2808C128.829 88.5557 128.829 86.8325 130.208 86.205C131.181 85.7623 132.181 85.9474 133.133 86.3323C130.394 88.371 127.673 90.4228 125.167 92.7485Z"/>
	<path fill="#2B4759" d="M109.425 109.333C108.918 108.709 108.868 108.583 108.762 107.785C109.35 105.732 112.336 102.422 114.151 101.334C115.008 101.229 115.147 101.244 115.929 101.606C113.655 104.01 111.26 106.579 109.425 109.333Z"/>
	<path fill="#2B4759" d="M321.255 65.9991C321.217 65.6431 321.172 65.3041 321.212 64.9465C321.277 64.3675 321.44 64.0817 321.926 63.7485C324.681 61.86 329.894 62.6987 332.966 63.1869C328.897 63.8263 325.142 64.6317 321.255 65.9991Z"/>
	<path fill="#FD635B" d="M218.951 253.803C220.729 254.144 222.583 254.598 224.401 254.46C226.351 254.313 228.113 253.59 229.128 251.809C231.127 248.299 230.384 242.68 230.915 238.698C231.407 235.004 232.74 231.426 233.445 227.768C233.982 224.982 233.798 217.772 235.489 215.818C235.813 215.785 236.161 215.688 236.466 215.808C237.953 216.394 238.974 217.613 239.655 219.027C240.507 220.796 240.917 222.866 241.492 224.741Q242.887 229.192 244.392 233.607C246.42 239.426 248.287 245.447 250.415 251.187C252.226 256.073 254.375 260.848 256.049 265.78C258.678 273.528 260.564 281.814 263.94 289.264C264.94 291.472 267.036 295.025 269.484 295.845C271.402 296.488 273.629 295.926 275.398 295.085C277.234 294.211 279.302 292.782 280.25 290.925C281.925 287.642 282.728 283.482 283.798 279.95C285.288 275.028 286.956 270.128 288.524 265.224C290.592 258.754 293.064 252.492 295.309 246.096C297.859 238.827 300.177 231.496 302.757 224.234C304.095 223.031 304.163 220.212 304.934 218.552C305.387 218.469 305.842 218.386 306.3 218.342C309.605 218.03 307.993 221.602 309.605 222.976C310.082 225.087 310.31 227.243 310.786 229.356C311.459 232.346 312.438 235.286 312.861 238.326C313.432 242.434 313.155 246.724 314.276 250.737C314.592 251.868 315.006 252.473 316.003 253.133C317.782 254.311 320.494 254.586 322.538 254.115C325.521 253.429 326.946 250.997 328.43 248.551C331.489 243.509 334.681 235.315 340.832 233.803C347.545 232.152 361.327 233.12 368.832 233.02C375.746 232.929 382.676 232.323 389.584 232.546C392.58 232.642 397.352 232.606 400.121 233.854C399.523 237.595 367.034 265.46 362.685 269.667C359.858 272.402 357.292 275.399 354.564 278.231C350.136 282.826 345.442 287.405 340.769 291.752C336.747 295.494 332.248 298.739 328.316 302.559L302.387 328.071C299.27 331.181 296.437 334.614 293.199 337.592C289.72 340.792 285.835 343.57 282.013 346.343C277.576 349.561 273.53 350.173 268.127 349.352C263.588 348.663 258.177 343.356 254.797 340.434C247.907 334.479 241.256 327.798 234.89 321.27C232.08 318.388 229.417 315.365 226.518 312.569C219.883 306.172 212.994 300.11 206.255 293.836C202.306 290.16 198.536 286.262 194.661 282.503C190.239 278.214 185.697 274.033 181.34 269.679C178.137 266.48 175.164 263.048 171.911 259.9C167.409 255.543 162.588 251.492 158.04 247.166C156.141 245.359 152.011 240.797 150.062 239.64C148.711 238.128 147.712 236.562 146.729 234.79C148.574 233.549 150.427 233.105 152.607 232.814C157.506 232.16 162.427 232.597 167.346 232.649L192.53 232.86C196.226 232.891 201.188 232.697 204.689 233.952C208.884 235.455 214.555 249.459 218.725 253.583L218.951 253.803Z"/>
	<path fill="#FD635B" d="M122.233 209.49C115.156 188.838 111.962 176.933 117.498 155.03C119.021 149.004 120.752 142.957 123.487 137.347C131.172 121.581 141.456 110.329 156.728 101.739C160.578 99.5734 164.656 97.41 168.843 95.9776C172.418 94.7542 176.069 93.4128 179.747 92.5414Q181.285 92.1701 182.837 91.8663Q184.39 91.5626 185.954 91.327Q187.519 91.0914 189.092 90.9243Q190.665 90.7573 192.244 90.6592Q193.823 90.5611 195.405 90.532Q196.987 90.503 198.568 90.5431Q200.15 90.5833 201.728 90.6924Q203.306 90.8016 204.878 90.9797Q206.45 91.1578 208.013 91.4043Q209.576 91.6509 211.126 91.9656Q212.677 92.2802 214.212 92.6623Q215.747 93.0444 217.264 93.4932Q218.781 93.942 220.277 94.4567Q221.773 94.9713 223.245 95.5509Q224.717 96.1304 226.163 96.7738Q227.608 97.4171 229.024 98.123C240.602 103.826 250.376 113.602 257.659 124.122C259.284 126.47 261.185 129.019 262.065 131.759C262.294 132.472 262.285 133.262 262.219 134.002C261.987 136.612 261.341 139.246 260.924 141.836C260.379 145.226 260.036 148.686 259.785 152.11C259.06 161.975 259.87 199.174 256.768 204.914C256.513 205.386 256.284 205.619 255.82 205.872C254.557 205.841 253.744 204.861 252.925 204.009C249.838 200.795 247.015 197.208 244.275 193.693C240.857 189.306 235.564 179.865 229.356 179.861C228.081 179.861 227.072 180.352 226.22 181.298C225.038 182.61 224.392 184.44 223.847 186.086C223.025 188.571 222.334 191.157 221.923 193.743C221.026 199.4 221.249 205.029 217.388 209.712C211.239 211.9 199.051 210.871 192.301 210.84L150.85 210.777Q143.766 210.733 136.682 210.825C132.355 210.841 128.251 210.724 123.947 211.29C123.187 210.898 122.74 210.157 122.233 209.49ZM177.696 117.454C168.508 119.351 157.434 130.202 152.382 137.908C148.223 144.253 142.455 158.524 144.007 166.106C144.16 166.85 144.407 167.556 145.062 168C146.515 168.985 149.296 169.163 151.03 169.237C152.254 168.99 153.618 168.828 154.687 168.147C154.754 168.104 154.824 168.066 154.888 168.02C156.519 166.856 157.352 159.974 157.935 157.859Q158.653 155.337 159.632 152.904C161.079 149.238 162.92 146.205 165.262 143.04C168.4 138.8 172.401 135.014 177.036 132.448C178.974 131.375 181.579 130.711 183.104 129.056C184.091 127.985 184.362 125.806 184.517 124.412C184.695 122.811 184.862 119.78 183.9 118.394C183.388 117.656 182.185 117.412 181.347 117.339C180.169 117.237 178.873 117.335 177.696 117.454Z"/>
	<path fill="#FD635B" d="M339.749 90.5462C358.722 89.6925 377.095 94.0873 392.744 105.065C407.745 115.588 415.451 125.797 422.454 142.74C425.098 149.137 427.357 155.856 428.519 162.705C429.775 170.108 430.045 179.03 428.76 186.439C428.284 189.179 427.396 191.844 426.714 194.537C425.676 198.631 424.743 202.276 422.915 206.119C422.292 207.427 421.987 208.857 421.141 210.048C418.87 211.1 414.866 211.211 412.346 211.326C403.583 211.727 394.734 211.172 385.961 211.135C372.374 211.077 358.816 211.342 345.224 211.148C338.948 211.151 331.857 211.828 325.967 209.437C322.3 204.708 321.779 192.63 319.98 186.245C319.397 184.178 318.655 181.54 316.607 180.479C308.666 176.365 300.852 192.154 297.446 197.031C295.839 199.332 293.697 201.445 291.814 203.533C291.268 204.138 290.111 205.765 289.36 205.948C288.968 206.043 288.879 205.867 288.554 205.668C287.262 203.409 286.291 194.767 285.817 191.698C284.109 180.644 284.416 169.432 283.728 158.304C283.376 152.603 281.243 136.216 282.188 132.081C283.247 127.447 287.288 122.28 290.105 118.451C299.214 106.068 309.484 98.9245 323.97 94.1284C326.511 93.287 329.1 92.3027 331.717 91.7335C334.341 91.1629 337.09 90.9469 339.749 90.5462ZM361.686 109.114C360.331 109.236 357.828 109.173 356.96 110.351C355.715 112.042 355.806 115.66 356.212 117.621C356.455 118.792 356.843 119.797 357.893 120.466C360.09 121.867 363.151 121.985 365.587 122.881C369.434 124.297 375.777 128.501 379.132 131.103C384.005 134.881 390.142 145.939 393.376 147.62C394.347 148.125 395.507 147.96 396.531 148.227C398.248 148.22 399.165 147.66 400.376 146.462C401.033 145.812 402.298 144.194 402.264 143.256C402.261 143.171 402.249 143.087 402.241 143.002C402.957 140.308 400.313 135.144 398.948 132.782C395.161 126.225 385.931 117.785 379.338 114.103C376.152 112.323 372.141 110.94 368.61 110.041C366.313 109.456 364.04 109.258 361.686 109.114Z"/>
	<path fill="#0E324B" d="M462.515 17.5345C469.303 16.4119 477.126 14.6912 483.832 17.2593C486.84 17.8614 494.623 19.5579 496.299 21.9888C497.058 22.2224 497.843 22.3921 498.319 23.0911C498.35 23.1372 498.362 23.1942 498.383 23.2458C500.493 24.1012 508.253 30.2964 509.091 32.5089C509.166 32.7057 509.155 32.7412 509.159 32.9236C512.12 34.6278 516.5 44.1802 517.435 47.561C519.167 53.8275 519.379 67.0283 517.68 73.2668C516.926 76.0353 515.348 78.7919 513.916 81.2689C509.505 88.8946 503.189 94.4443 495.615 98.7568C493.801 99.79 491.781 101.021 489.745 101.542C487.88 102.018 485.167 101.598 483.991 103.467C482.257 106.224 482.877 112.587 482.875 115.749C482.87 123.023 482.625 130.294 482.564 137.569C482.375 159.986 481.741 179.257 467.181 197.753C465.095 200.404 461.289 205.704 458.548 207.261C457.929 208.787 449.304 216.764 447.603 217.547C447.206 218.506 446.026 219.59 445.074 219.988C444.832 221.121 418.825 243.613 415.614 248.277C414.904 249.308 414.415 250.384 414.651 251.659C414.965 252.218 415.256 252.575 415.873 252.805C419.049 253.991 428.957 253.047 432.655 252.62C436.313 252.198 439.707 251.459 443.257 250.513C445.509 249.912 447.794 249.388 449.896 248.357C456.548 245.096 461.141 237.443 464.241 230.929C466.818 225.515 469.348 220.381 473.51 215.958C477.212 212.024 481.822 207.023 486.635 204.565C489.421 203.143 492.54 202.276 495.395 200.936C498.238 199.602 500.875 197.866 503.708 196.568C507.47 194.845 512.97 194.469 516.863 195.953C520.358 197.286 523.365 200.476 524.86 203.868C526.321 207.185 526.475 211.508 525.131 214.887C523.816 218.194 521.292 220.672 518.123 222.22C507.036 227.636 500.148 217.91 492.484 222.351C483.8 227.382 480.532 243.29 474.564 251.383C472.104 254.719 465.762 260.129 462.284 262.454C460.217 263.837 457.901 264.948 455.655 266.006C451.239 268.086 446.018 269.85 441.183 270.564C436.027 271.326 430.568 271.025 425.361 271.006L402.845 270.938C399.514 270.933 394.704 270.366 391.621 271.728C388.759 272.992 380.512 282.399 377.715 285.055L324.623 335.364Q315.94 343.612 307.027 351.611C302.731 355.513 298.349 359.786 293.631 363.159C291.025 365.023 288.26 366.501 285.306 367.733C278.701 370.488 272.036 372.103 264.916 370.156C260.336 368.904 255.613 366.716 251.717 364.004C247.103 360.792 242.328 356.918 238.234 353.069C235.42 350.424 232.802 347.563 229.923 344.989Q203.308 321.212 178.018 296.029L162.962 280.982C160.199 278.242 157.449 274.956 154.187 272.834C152.612 271.81 150.802 271.353 148.954 271.133C145.542 270.726 141.885 270.933 138.447 270.96L116.545 271.121C111.406 271.118 106.105 271.339 101.037 270.359C94.5204 269.099 88.2105 266.329 82.7256 262.614C76.0554 258.097 71.0381 251.869 67.0714 244.954C62.5646 237.098 59.3998 224.754 50.2675 220.978C46.4036 221.365 43.4574 222.79 39.8488 223.976C36.1703 225.184 32.7002 224.577 29.292 222.801C26.1654 221.172 23.1771 218.31 22.1505 214.851C21.0753 211.229 21.3924 205.677 23.2751 202.341C25.0537 199.191 28.4021 196.677 31.8769 195.723C39.3768 193.662 44.9116 197.078 51.1583 200.585C52.7438 201.445 54.3451 202.45 55.9936 203.172L59.3918 204.457C61.0643 205.301 62.545 206.301 64.0665 207.382C64.1384 207.424 64.2113 207.465 64.2823 207.508C66.3151 208.756 68.1195 210.866 69.8058 212.541C71.7472 214.469 73.6708 216.379 75.2146 218.654C77.322 221.759 79.2902 225.269 80.979 228.626C84.6088 235.841 87.9362 244.034 95.2386 248.41C97.7295 249.903 100.803 250.655 103.574 251.493C109.744 253.359 119.458 253.586 125.778 252.227C134.139 250.428 137.939 241.943 144.215 236.933L146.729 234.79C147.712 236.562 148.711 238.128 150.062 239.64C152.011 240.797 156.141 245.359 158.04 247.166C162.588 251.492 167.409 255.543 171.911 259.9C175.164 263.048 178.137 266.48 181.34 269.679C185.697 274.033 190.239 278.214 194.661 282.503C198.536 286.262 202.306 290.16 206.255 293.836C212.994 300.11 219.883 306.172 226.518 312.569C229.417 315.365 232.08 318.388 234.89 321.27C241.256 327.798 247.907 334.479 254.797 340.434C258.177 343.356 263.588 348.663 268.127 349.352C273.53 350.173 277.576 349.561 282.013 346.343C285.835 343.57 289.72 340.792 293.199 337.592C296.437 334.614 299.27 331.181 302.387 328.071L328.316 302.559C332.248 298.739 336.747 295.494 340.769 291.752C345.442 287.405 350.136 282.826 354.564 278.231C357.292 275.399 359.858 272.402 362.685 269.667C367.034 265.46 399.523 237.595 400.121 233.854C400.525 233.778 400.933 233.68 401.309 233.507C405.939 231.371 415.095 220.926 419.214 216.967C431.507 205.149 446.953 193.739 455.829 179C456.897 177.226 457.648 175.348 458.533 173.485C459.217 172.046 460.319 170.759 460.823 169.242C462.015 165.653 462.034 161.33 462.289 157.562C463.078 145.921 463.066 134.492 463.087 122.836C463.093 119.729 463.907 106.524 462.363 104.556C460.531 102.221 456.863 101.786 454.293 100.555C447.11 97.1141 438.184 89.9196 434.615 82.6847C433.232 79.8805 431.756 76.6802 430.978 73.6589C428.971 65.8607 429.061 53.9911 431.41 46.2821C432.332 43.2569 434.273 40.5683 435.245 37.5318L435.358 37.1655C437.317 35.2945 438.765 32.5824 440.522 30.4849C442.794 27.7737 445.728 25.7702 448.453 23.5529Q450.046 22.4712 451.735 21.5474Q453.424 20.6235 455.194 19.866Q456.964 19.1085 458.799 18.5243Q460.633 17.94 462.515 17.5345ZM466.139 36.0598C464.665 36.8826 463.004 38.1101 461.41 38.5883C460.954 39.3826 459.614 39.6475 458.849 40.1432C457.193 41.2152 455.499 42.9733 454.151 44.4238C448.555 50.4476 448.023 56.0813 448.364 63.9827C448.617 69.8249 452.021 76.3298 456.348 80.2354C461.133 84.5537 468.359 87.226 474.813 86.8488C477.53 86.69 479.743 85.8764 482.257 84.936C483.698 84.3972 485.252 84.0741 486.653 83.4411C489.335 82.2288 492.529 79.1505 494.464 76.9542C499.723 70.9873 500.736 64.6735 500.185 57.0356C499.777 51.3828 497.362 46.5104 493.024 42.8151C491.449 41.4739 489.723 40.5443 487.977 39.4704C486.423 38.515 484.886 37.2913 483.196 36.5976C478.393 34.6258 471.207 35.6263 466.139 36.0598Z"/>
	<path fill="#2B4759" d="M51.1583 200.585C52.7438 201.445 54.3451 202.45 55.9936 203.172C55.158 203.67 54.5608 203.867 53.5671 203.783C52.7053 203.711 51.9865 203.394 51.454 202.692C50.9587 202.039 51.0673 201.351 51.1583 200.585Z"/>
	<path fill="#25263D" d="M144.215 236.933L146.729 234.79C147.712 236.562 148.711 238.128 150.062 239.64C148.217 239.224 145.977 237.758 144.215 236.933Z"/>
	<path fill="#2B4759" d="M461.41 38.5883C461.145 38.4951 460.926 38.4042 460.703 38.2308C460.202 37.8427 460.221 37.8363 460.146 37.1884C460.743 36.4517 461.61 36.1186 462.514 35.9006C463.698 35.6147 465.048 35.3826 466.139 36.0598C464.665 36.8826 463.004 38.1101 461.41 38.5883Z"/>
	<path fill="#2B4759" d="M59.3918 204.457C61.0643 205.301 62.545 206.301 64.0665 207.382C62.1013 208.358 60.1435 207.561 58.0971 207.094L59.3918 204.457Z"/>
	<path fill="#2B4759" d="M498.008 26.0786C498.259 25.3215 498.082 24.3961 497.998 23.616L498.383 23.2458C500.493 24.1012 508.253 30.2964 509.091 32.5089C509.166 32.7057 509.155 32.7412 509.159 32.9236C507.973 32.5704 504.671 27.8165 502.634 27.3698L502.546 27.7442C503.726 29.5319 507.268 31.4879 508.78 33.8568L508.531 33.9887C506.967 33.1159 502.958 28.3187 501.421 26.8053L501.267 26.6566C500.38 26.2632 498.99 26.2201 498.008 26.0786Z"/>
	<path fill="#2B4759" d="M445.943 217.215C446.592 216.874 451.071 212.936 451.731 212.156C452.265 211.526 452.175 210.76 452.926 210.326C452.651 211.003 452.388 211.61 452.316 212.343C453.9 212.091 456.738 208.415 458.068 207.152L458.548 207.261C457.929 208.787 449.304 216.764 447.603 217.547C447.206 218.506 446.026 219.59 445.074 219.988C444.491 219.553 444.439 219.585 444.277 218.832C444.675 218.02 445.216 217.691 445.943 217.215Z"/>
	<path fill="#2B4759" d="M483.832 17.2593C486.84 17.8614 494.623 19.5579 496.299 21.9888L496.487 22.6308L496.177 23.0915C492.614 23.5781 489.056 20.1262 485.882 19.0802C484.836 18.7355 483.384 18.7418 482.275 18.5967Q483.707 18.3558 485.149 18.1784C484.634 17.9805 484.356 17.7737 483.961 17.3874C483.918 17.3451 483.875 17.302 483.832 17.2593Z"/>
	<path fill="#2B4759" d="M448.453 23.5529C449.178 23.7701 449.47 23.7459 449.929 24.3685C449.629 25.3916 447.451 26.7641 446.575 27.522C445.012 28.8731 443.441 30.2514 442.019 31.752C440.545 33.3072 438.998 36.275 437.188 37.3119C436.713 37.5842 436.434 37.5462 435.913 37.5187L435.358 37.1655C437.317 35.2945 438.765 32.5824 440.522 30.4849C442.794 27.7737 445.728 25.7702 448.453 23.5529Z"/>
	<path fill="#2B4759" d="M462.515 17.5345C469.303 16.4119 477.126 14.6912 483.832 17.2593C483.875 17.302 483.918 17.3451 483.961 17.3874C484.356 17.7737 484.634 17.9805 485.149 18.1784Q483.707 18.3558 482.275 18.5967C476.967 18.4569 467.121 19.3765 462.515 17.5345Z"/>
	<path fill="#FD635B" d="M473.565 48.9643C474.361 48.9545 475.181 48.9596 475.956 49.1591C476.954 49.4159 477.938 49.8717 478.468 50.7901C479.409 51.7993 480.264 54.1601 480.249 55.528C481.64 55.8803 483.246 56.3895 484.533 57.0209C485.895 57.6888 487.019 58.7764 487.442 60.2668C487.799 61.5235 487.752 63.5332 487.075 64.6643C486.257 66.0319 484.251 65.9881 482.853 66.2951C478.926 67.1577 480.402 70.9331 478.714 73.2792C477.851 74.4795 476.5 74.5691 475.156 74.7535C474.004 75.0788 472.472 74.3577 471.374 74.002C470.879 72.8176 467.84 67.2493 467.106 66.5459C465.822 65.3153 464.188 64.4801 462.963 63.1679C462.269 62.4248 461.71 61.4947 461.784 60.4432C462.031 56.9433 465.7 57.0086 467.659 55.2306C467.753 55.1451 467.843 55.0544 467.935 54.9663C469.163 53.8191 468.933 51.255 470.168 50.0595C470.223 50.0065 470.283 49.9599 470.34 49.9097C471.202 49.1525 472.469 49.1122 473.565 48.9643Z"/>
</svg>
